<svg width="487" height="107" viewBox="0 0 487 107" fill="none" xmlns="http://www.w3.org/2000/svg">
<g clip-path="url(#clip0_105_1642)">
<path d="M204.167 0H199.706V106.855H204.167V0Z" fill="#231F20"/>
<path d="M258.139 26.1703C258.139 29.5583 257.582 32.5091 256.467 35.0276C255.352 37.546 253.642 39.5061 251.335 40.9102C249.029 42.3144 246.104 43.0153 242.563 43.0153C239.02 43.0153 236.095 42.3144 233.791 40.9102C231.484 39.5085 229.775 37.5389 228.659 35.0062C227.544 32.4735 226.988 29.5131 226.988 26.1275C226.988 22.7395 227.544 19.7958 228.659 17.294C229.775 14.7922 231.484 12.8487 233.791 11.4589C236.095 10.0713 239.037 9.37521 242.608 9.37521C246.151 9.37521 249.067 10.0713 251.359 11.4589C253.649 12.8487 255.352 14.7993 256.467 17.3178C257.582 19.8338 258.139 22.787 258.139 26.175V26.1703ZM234.271 26.1703C234.271 29.5892 234.928 32.281 236.24 34.2483C237.553 36.2155 239.66 37.2015 242.563 37.2015C245.524 37.2015 247.647 36.2179 248.931 34.2483C250.215 32.281 250.855 29.5892 250.855 26.1703C250.855 22.7538 250.213 20.0595 248.931 18.0923C247.649 16.1251 245.54 15.1391 242.611 15.1391C239.679 15.1391 237.555 16.1227 236.243 18.0923C234.93 20.0595 234.274 22.7538 234.274 26.1703H234.271Z" fill="#231F20"/>
<path d="M264.918 42.5567V9.87653H285.577V15.5976H271.835V22.4188H274.584C277.668 22.4188 280.196 22.8464 282.165 23.7018C284.134 24.5571 285.594 25.7308 286.541 27.2252C287.487 28.7196 287.96 30.4279 287.96 32.3499C287.96 35.5859 286.883 38.0948 284.731 39.8791C282.579 41.6634 279.15 42.5567 274.446 42.5567H264.918ZM271.835 36.8807H274.171C276.277 36.8807 277.935 36.5457 279.14 35.8734C280.346 35.2034 280.95 34.0273 280.95 32.3499C280.95 30.6108 280.291 29.468 278.981 28.9192C277.668 28.3704 275.88 28.0948 273.621 28.0948H271.835V36.8831V36.8807Z" fill="#231F20"/>
<path d="M340.137 37.0637V52.0769H333.448V42.5567H294.143V9.87653H301.06V36.7905H311.231V9.87653H318.193V36.7905H328.364V9.87653H335.281V37.0637H340.137Z" fill="#231F20"/>
<path d="M364.002 42.5567H345.173V9.87653H364.002V15.5525H352.091V22.7395H363.176V28.4155H352.091V36.838H364.002V42.5591V42.5567Z" fill="#231F20"/>
<path d="M384.709 15.1866C382.05 15.1866 380.019 16.1773 378.616 18.1612C377.211 20.1451 376.509 22.8607 376.509 26.3081C376.509 29.7864 377.159 32.4806 378.457 34.3861C379.755 36.2939 381.838 37.2466 384.711 37.2466C386.024 37.2466 387.353 37.0946 388.696 36.7881C390.04 36.484 391.49 36.0563 393.048 35.5051V41.3189C391.612 41.8986 390.192 42.3263 388.789 42.6019C387.384 42.8775 385.812 43.0129 384.071 43.0129C380.683 43.0129 377.903 42.3191 375.734 40.9316C373.566 39.5417 371.963 37.5911 370.924 35.0727C369.885 32.5566 369.366 29.6201 369.366 26.2629C369.366 22.9676 369.963 20.0548 371.152 17.5197C372.343 14.987 374.077 13.0055 376.353 11.5705C378.628 10.1379 381.415 9.42035 384.713 9.42035C386.33 9.42035 387.957 9.62705 389.593 10.0381C391.227 10.4491 392.791 11.0074 394.289 11.7083L392.045 17.3391C390.822 16.7594 389.593 16.2557 388.356 15.8305C387.12 15.4028 385.905 15.189 384.716 15.189L384.709 15.1866Z" fill="#231F20"/>
<path d="M412.606 42.5567H405.689V15.6428H396.803V9.87653H421.495V15.6428H412.609V42.5567H412.606Z" fill="#231F20"/>
<path d="M426.532 9.87653H436.702C441.037 9.87653 444.328 10.4871 446.575 11.7083C448.82 12.9295 449.942 15.0797 449.942 18.1636C449.942 20.0239 449.507 21.5967 448.637 22.8773C447.767 24.1603 446.52 24.9372 444.904 25.2128V25.4409C445.971 25.6856 446.958 26.0753 447.859 26.6075C448.761 27.142 449.469 27.9284 449.99 28.9643C450.508 30.0026 450.767 31.3758 450.767 33.0841C450.767 36.0444 449.69 38.3633 447.538 40.0407C445.386 41.718 442.461 42.5567 438.766 42.5567H426.534V9.87653H426.532ZM433.449 22.8298H437.48C439.496 22.8298 440.892 22.5162 441.672 21.8913C442.449 21.2665 442.839 20.328 442.839 19.0759C442.839 17.8238 442.381 16.9258 441.465 16.3769C440.55 15.8281 439.099 15.5525 437.113 15.5525H433.449V22.8298ZM433.449 28.3228V36.8356H437.984C440.06 36.8356 441.51 36.4317 442.335 35.6239C443.16 34.8161 443.572 33.7398 443.572 32.3975C443.572 31.1763 443.151 30.1927 442.312 29.4443C441.472 28.6982 439.953 28.3228 437.753 28.3228H433.447H433.449Z" fill="#231F20"/>
<path d="M487 26.1703C487 29.5583 486.444 32.5091 485.328 35.0276C484.213 37.546 482.503 39.5061 480.197 40.9102C477.89 42.3144 474.965 43.0153 471.425 43.0153C467.881 43.0153 464.957 42.3144 462.652 40.9102C460.346 39.5085 458.636 37.5389 457.521 35.0062C456.406 32.4735 455.849 29.5131 455.849 26.1275C455.849 22.7395 456.406 19.7958 457.521 17.294C458.636 14.7922 460.346 12.8487 462.652 11.4589C464.957 10.0713 467.898 9.37521 471.47 9.37521C475.013 9.37521 477.928 10.0713 480.221 11.4589C482.51 12.8487 484.213 14.7993 485.328 17.3178C486.444 19.8338 487 22.787 487 26.175V26.1703ZM463.133 26.1703C463.133 29.5892 463.789 32.281 465.102 34.2483C466.414 36.2155 468.521 37.2015 471.425 37.2015C474.385 37.2015 476.509 36.2179 477.793 34.2483C479.077 32.281 479.716 29.5892 479.716 26.1703C479.716 22.7538 479.074 20.0595 477.793 18.0923C476.511 16.1251 474.402 15.1391 471.472 15.1391C468.54 15.1391 466.417 16.1227 465.104 18.0923C463.791 20.0595 463.135 22.7538 463.135 26.1703H463.133Z" fill="#231F20"/>
<path d="M228.455 97.4799V64.7997H249.114V70.5208H235.372V77.3419H238.121C241.205 77.3419 243.733 77.7696 245.702 78.6249C247.671 79.4802 249.131 80.6539 250.077 82.1483C251.024 83.6428 251.497 85.351 251.497 87.2731C251.497 90.509 250.42 93.018 248.268 94.8023C246.116 96.5865 242.687 97.4799 237.983 97.4799H228.455ZM235.372 91.8039H237.707C239.814 91.8039 241.472 91.4689 242.677 90.7965C243.883 90.1265 244.487 88.9505 244.487 87.2731C244.487 85.534 243.828 84.3912 242.518 83.8423C241.205 83.2935 239.417 83.0179 237.158 83.0179H235.372V91.8063V91.8039Z" fill="#231F20"/>
<path d="M283.93 64.7997L273.807 87.9146C272.891 90.0196 271.914 91.8205 270.875 93.315C269.836 94.8094 268.53 95.9546 266.958 96.7481C265.384 97.5393 263.315 97.9384 260.752 97.9384C259.958 97.9384 259.087 97.8766 258.141 97.7555C257.194 97.6343 256.324 97.4656 255.53 97.2518V91.3026C256.262 91.6067 257.064 91.8205 257.934 91.9441C258.804 92.0676 259.637 92.127 260.431 92.127C261.957 92.127 263.056 91.754 263.729 91.0056C264.402 90.2572 264.937 89.352 265.332 88.2829L254.018 64.8021H261.346L267.439 78.9457C267.653 79.4042 267.943 80.0528 268.309 80.8915C268.675 81.7302 268.951 82.4406 269.134 83.0203H269.365C269.548 82.4715 269.814 81.7539 270.166 80.8701C270.516 79.9863 270.83 79.207 271.105 78.537L276.786 64.8044H283.932L283.93 64.7997Z" fill="#231F20"/>
<path d="M311.368 64.7997V91.7136H315.72V107H309.033V97.4799H288.557V107H281.868V91.7136H284.386C285.547 89.4565 286.631 87.0165 287.639 84.3912C288.647 81.7682 289.549 78.853 290.343 75.6479C291.137 72.4429 291.793 68.8292 292.312 64.7997H311.368ZM304.451 70.5659H297.81C297.534 72.7019 297.099 74.9898 296.504 77.4322C295.907 79.8746 295.199 82.3218 294.373 84.7784C293.548 87.2351 292.647 89.5468 291.67 91.7112H304.451V70.5659Z" fill="#231F20"/>
<path d="M347.009 64.7997L336.886 87.9146C335.971 90.0196 334.993 91.8205 333.954 93.315C332.915 94.8094 331.609 95.9546 330.038 96.7481C328.463 97.5393 326.395 97.9384 323.831 97.9384C323.037 97.9384 322.167 97.8766 321.22 97.7555C320.274 97.6343 319.404 97.4656 318.609 97.2518V91.3026C319.342 91.6067 320.143 91.8205 321.013 91.9441C321.884 92.0676 322.716 92.127 323.51 92.127C325.037 92.127 326.135 91.754 326.808 91.0056C327.481 90.2572 328.016 89.352 328.411 88.2829L317.097 64.8021H324.426L330.518 78.9457C330.732 79.4042 331.022 80.0528 331.388 80.8915C331.754 81.7302 332.03 82.4406 332.213 83.0203H332.444C332.627 82.4715 332.894 81.7539 333.245 80.8701C333.595 79.9863 333.909 79.207 334.185 78.537L339.866 64.8044H347.011L347.009 64.7997Z" fill="#231F20"/>
<path d="M397.124 91.9892V107.002H390.435V97.4823H351.13V64.8021H358.047V91.716H368.218V64.8021H375.18V91.716H385.351V64.8021H392.268V91.9892H397.124Z" fill="#231F20"/>
<path d="M420.991 97.4799H402.163V64.7997H420.991V70.4757H409.08V77.6627H420.166V83.3387H409.08V91.7611H420.991V97.4822V97.4799Z" fill="#231F20"/>
<path d="M446.644 97.4799H427.816V64.7997H446.644V70.4757H434.733V77.6627H445.819V83.3387H434.733V91.7611H446.644V97.4822V97.4799Z" fill="#231F20"/>
<g clip-path="url(#clip1_105_1642)">
<path d="M127.413 38.2921H105.379V12.0918H157.96V0H91.0792V45.6106C112.379 45.6725 133.692 45.7283 155.034 45.7631C148.681 40.7799 139.466 38.2921 127.413 38.2921Z" fill="#00E055"/>
<path d="M151.638 66.3402C151.705 67.0558 151.744 67.7909 151.744 68.5533C151.744 74.2852 149.903 78.6901 146.198 81.7727C142.493 84.8779 136.536 86.4192 128.345 86.4192H106.312V66.3417H92.0133V98.5321H128.345C141.301 98.5321 150.899 95.8828 157.138 90.5872C163.377 85.2689 166.476 77.9323 166.476 68.5548C166.476 67.803 166.447 67.0693 166.404 66.3417H151.638V66.3402Z" fill="#00E055"/>
<path d="M105.379 50.3824H127.413C135.516 50.3824 141.431 51.9886 145.178 55.1798C148.429 57.9469 150.272 61.6635 150.706 66.3387H165.471C164.994 58.1658 161.837 51.5614 155.967 46.5179C155.666 46.2582 155.349 46.0106 155.034 45.7631C133.692 45.7283 112.379 45.6725 91.0792 45.6106V66.3387H105.378V50.3824H105.379Z" fill="#00E055"/>
<path d="M19.6358 62.207V56.4298C19.6358 52.1803 20.234 48.5286 21.3896 45.4355C16.3573 45.4264 11.3235 45.4204 6.29122 45.4128C5.43543 48.8215 5 52.4913 5 56.4283V62.2055C5 63.6199 5.05123 64.9967 5.15368 66.3387H19.8648C19.7262 65.0208 19.6358 63.6562 19.6358 62.2055V62.207Z" fill="#00E055"/>
<path d="M76.6287 62.207V56.4298C76.6287 52.532 76.2129 48.9151 75.4038 45.5668C70.3459 45.5517 65.2895 45.5396 60.2331 45.5261C61.3887 48.6117 61.9884 52.2331 61.9884 56.4298V62.207C61.9884 63.6592 61.8995 65.0223 61.7639 66.3402H76.469C76.576 64.9997 76.6287 63.623 76.6287 62.207Z" fill="#00E055"/>
<path d="M62.6965 66.3402C62.1179 72.0072 60.3145 76.4439 57.2378 79.6049C53.447 83.5072 48.2837 85.4591 41.7432 85.4591C35.2027 85.4591 30.0379 83.48 26.2486 79.5325C23.1825 76.3352 21.3805 71.9227 20.7959 66.3402H6.0863C6.39517 70.3814 7.17261 74.0949 8.42315 77.4779C10.079 81.9871 12.4671 85.7912 15.5859 88.8783C18.6987 91.9714 22.4608 94.3475 26.8724 96.0232C31.2839 97.6943 36.2423 98.5321 41.7447 98.5321C47.2471 98.5321 52.0473 97.6943 56.4589 96.0232C60.8704 94.3475 64.6371 91.9443 67.7499 88.8028C70.8627 85.6644 73.2809 81.8663 74.9925 77.4085C76.2776 74.0617 77.0807 70.3723 77.4016 66.3432H62.6965V66.3402Z" fill="#00E055"/>
<path d="M25.3175 39.0303C29.1068 35.128 34.2701 33.1761 40.8121 33.1761C47.3541 33.1761 52.5159 35.1552 56.3067 39.1028C58.0033 40.872 59.2975 43.0262 60.2331 45.526C65.2895 45.5396 70.3474 45.5517 75.4038 45.5668C75.0362 44.0436 74.5932 42.5688 74.0583 41.1588C72.3468 36.6497 69.9286 32.8516 66.8158 29.7584C63.703 26.6713 59.9363 24.2892 55.5248 22.6136C51.1132 20.9425 46.2105 20.1046 40.8106 20.1046C35.4107 20.1046 30.508 20.9425 26.0949 22.6136C21.6834 24.2892 17.9228 26.6925 14.8039 29.8354C11.6912 32.9769 9.27897 36.8037 7.56287 41.3068C7.06115 42.6276 6.6438 43.9999 6.28973 45.4113C11.322 45.4189 16.3558 45.4249 21.3881 45.434C22.3252 42.925 23.6195 40.7754 25.316 39.0303H25.3175Z" fill="#00E055"/>
<path d="M14.0024 0V12.0903H42.697C42.6789 8.05967 42.2239 4.03059 41.9888 0H14.0024Z" fill="#00E055"/>
<path d="M67.6264 0H41.9888C42.2239 4.03059 42.6804 8.05967 42.697 12.0903H67.6264V0Z" fill="#00E055"/>
<path d="M107.244 19.5612H159.826V7.47095H92.9445V45.6166C97.7116 45.6302 102.476 45.6438 107.243 45.6574V19.5612H107.244Z" fill="#00D4E0"/>
<path d="M151.123 66.3402C152.765 69.0152 153.608 72.2321 153.608 76.0227C153.608 81.7546 151.766 86.1595 148.062 89.2421C144.357 92.3473 138.399 93.8886 130.209 93.8886H108.175V66.3402H93.8771V106.002H130.209C143.165 106.002 152.762 103.352 159.002 98.0566C165.241 92.7383 168.34 85.4017 168.34 76.0242C168.34 72.5265 167.877 69.3005 166.957 66.3417H151.123V66.3402Z" fill="#00D4E0"/>
<path d="M107.244 57.8533H129.278C137.381 57.8533 143.296 59.4595 147.043 62.6508C148.313 63.7316 149.351 64.9695 150.192 66.3402H166.026C164.523 61.511 161.796 57.3944 157.834 53.9903C151.464 48.4984 141.931 45.7646 129.278 45.7646H107.244V45.6589C102.476 45.6453 97.7116 45.6317 92.946 45.6181V66.3417H107.244V57.8548V57.8533Z" fill="#00D4E0"/>
<path d="M21.4996 63.8992C21.4996 56.2033 23.392 50.399 27.1812 46.5012C27.5459 46.1254 27.9346 45.7842 28.3248 45.446C22.5181 45.434 16.7099 45.4294 10.9032 45.4204C10.3653 46.4952 9.87259 47.6138 9.42813 48.7792C7.71655 53.2898 6.86377 58.3334 6.86377 63.9007V66.3417H21.4996V63.9007V63.8992Z" fill="#00D4E0"/>
<path d="M64.7848 66.3402V69.6779C64.7848 77.3798 62.8939 83.1796 59.1031 87.0759C55.3123 90.9781 50.1489 92.93 43.6085 92.93C37.068 92.93 31.9031 90.951 28.1139 87.0034C24.3246 83.0513 22.4322 77.2726 22.4322 69.6779V66.3402H7.79639V69.6779C7.79639 75.3509 8.62204 80.4443 10.2884 84.9473C11.9443 89.4565 14.3323 93.2606 17.4511 96.3477C20.5639 99.4409 24.3261 101.817 28.7376 103.493C33.1492 105.164 38.1076 106.002 43.61 106.002C49.1124 106.002 53.9126 105.164 58.3242 103.493C62.7357 101.817 66.5024 99.4137 69.6152 96.2723C72.7279 93.1338 75.1461 89.3357 76.8577 84.8779C78.5693 80.4171 79.4281 75.3509 79.4281 69.6794V66.3417H64.7878L64.7848 66.3402Z" fill="#00D4E0"/>
<path d="M78.4924 63.8992C78.4924 58.2262 77.6336 53.1389 75.9221 48.6297C75.5183 47.567 75.0738 46.548 74.5917 45.5653C68.7398 45.5487 62.8893 45.5351 57.0389 45.5185C57.4246 45.8582 57.8088 46.1993 58.1689 46.5737C61.9597 50.5258 63.8506 56.3045 63.8506 63.8992V66.3402H78.4909V63.8992H78.4924Z" fill="#00D4E0"/>
<path d="M42.6758 40.6456C48.5941 40.6456 53.3732 42.2835 57.0405 45.517C62.8909 45.5336 68.7413 45.5472 74.5932 45.5638C73.0308 42.3725 71.06 39.5934 68.681 37.2279C65.5682 34.1408 61.8015 31.7586 57.39 30.083C52.9785 28.4119 48.0758 27.5741 42.6758 27.5741C37.2759 27.5741 32.3732 28.4119 27.9602 30.083C23.5486 31.7586 19.788 34.1619 16.6692 37.3048C14.3625 39.6326 12.443 42.3393 10.9031 45.4174C16.7099 45.4264 22.5181 45.4309 28.3248 45.443C31.989 42.2548 36.7637 40.6456 42.6758 40.6456Z" fill="#00D4E0"/>
<path d="M42.5237 7.46942H15.8661V19.5597H42.0627C42.8537 15.5291 42.7844 11.5 42.5252 7.46942H42.5237Z" fill="#00D4E0"/>
<path d="M69.4901 7.46942H42.5237C42.7844 11.5 42.8537 15.5291 42.0612 19.5597H69.4886V7.46942H69.4901Z" fill="#00D4E0"/>
<path d="M156.77 66.3402C157.762 68.6106 158.268 71.2116 158.268 74.1553C158.268 79.8872 156.427 84.2922 152.722 87.3748C149.017 90.48 143.059 92.0213 134.869 92.0213H112.836V66.3402H98.5372V104.133H134.869C147.825 104.133 157.423 101.483 163.662 96.1877C169.901 90.8694 173 83.5329 173 74.1553C173 71.3792 172.705 68.7767 172.125 66.3402H156.769H156.77Z" fill="#5F00B9"/>
<path d="M110.972 55.986H133.005C141.108 55.986 147.023 57.5922 150.771 60.7834C152.594 62.3353 153.968 64.1906 154.906 66.3402H170.262C168.92 60.6974 166.026 55.9573 161.561 52.1214C158.218 49.2396 153.996 47.1247 148.917 45.7585C131.485 45.7268 114.076 45.68 96.6735 45.6302V66.3402H110.972V55.986Z" fill="#5F00B9"/>
<path d="M133.937 43.8957H111.903V17.6938H164.484V5.60358H97.6031V45.6302C115.005 45.68 132.416 45.7268 149.847 45.7585C145.247 44.5207 139.948 43.8957 133.935 43.8957H133.937Z" fill="#5F00B9"/>
<path d="M26.1597 62.0318C26.1597 54.8432 27.8336 49.3272 31.1408 45.4506C25.6595 45.4385 20.1767 45.434 14.6954 45.4249C14.486 45.9125 14.2811 46.4061 14.0897 46.9103C12.3782 51.421 11.5254 56.4645 11.5254 62.0318V66.3402H26.1612V62.0318H26.1597Z" fill="#5F00B9"/>
<path d="M69.4434 66.3402V67.809C69.4434 75.5109 67.5525 81.3108 63.7617 85.207C59.9709 89.1093 54.8076 91.0612 48.2671 91.0612C41.7266 91.0612 36.5618 89.0821 32.7725 85.1345C28.9832 81.1824 27.0908 75.4038 27.0908 67.809V66.3402H12.455V67.809C12.455 73.4821 13.2807 78.5754 14.9471 83.0785C16.6029 87.5876 18.991 91.3918 22.1098 94.4789C25.2226 97.572 28.9847 99.9481 33.3963 101.624C37.8078 103.295 42.7662 104.133 48.2686 104.133C53.771 104.133 58.5712 103.295 62.9828 101.624C67.3943 99.9481 71.161 97.5448 74.2738 94.4034C77.3866 91.265 79.8048 87.4668 81.5163 83.009C83.2279 78.5482 84.0867 73.4821 84.0867 67.8105V66.3417H69.4464L69.4434 66.3402Z" fill="#5F00B9"/>
<path d="M83.1526 62.0318C83.1526 56.3588 82.2938 51.2715 80.5822 46.7624C80.4301 46.3608 80.2643 45.9714 80.1016 45.5804C74.5797 45.5638 69.0547 45.5502 63.5342 45.5351C66.8399 49.451 68.5123 54.9383 68.5123 62.0318V66.3402H83.1526V62.0318Z" fill="#5F00B9"/>
<path d="M31.8414 44.6324C35.6307 40.7301 40.794 38.7782 47.336 38.7782C53.878 38.7782 59.0398 40.7573 62.8306 44.7048C63.0807 44.966 63.3007 45.2574 63.5357 45.5336C69.0562 45.5487 74.5812 45.5638 80.1031 45.5789C78.4292 41.586 76.1767 38.1774 73.3427 35.3605C70.2299 32.2734 66.4632 29.8913 62.0517 28.2157C57.6401 26.5445 52.7374 25.7067 47.3375 25.7067C41.9376 25.7067 37.0349 26.5445 32.6218 28.2157C28.2103 29.8913 24.4497 32.2946 21.3308 35.4375C18.5676 38.2272 16.3588 41.5589 14.697 45.4234C20.1782 45.4325 25.661 45.437 31.1423 45.4491C31.3758 45.1758 31.5943 44.889 31.8444 44.6324H31.8414Z" fill="#5F00B9"/>
<path d="M42.3926 5.60208H20.5262V17.6923H42.367C42.9079 13.6618 42.6954 9.63267 42.3926 5.60208Z" fill="#5F00B9"/>
<path d="M74.1503 5.60208H42.3926C42.6955 9.63267 42.9079 13.6618 42.367 17.6923H74.1503V5.60208Z" fill="#5F00B9"/>
<path d="M131.142 41.0939H109.108V14.892H161.689V2.80179H94.8082V45.6227C114.657 45.68 134.52 45.7313 154.408 45.7631C148.435 42.6488 140.674 41.0939 131.142 41.0939Z" fill="black"/>
<path d="M154.89 66.3402C155.262 67.8906 155.47 69.5511 155.47 71.3535C155.47 77.0854 153.629 81.4904 149.924 84.573C146.219 87.6782 140.262 89.2195 132.071 89.2195H110.038V66.3402H95.7393V101.332H132.071C145.027 101.332 154.625 98.6831 160.864 93.3874C167.103 88.0692 170.202 80.7326 170.202 71.355C170.202 69.6175 170.088 67.9464 169.86 66.3417H154.888L154.89 66.3402Z" fill="black"/>
<path d="M109.108 53.1842H131.142C139.245 53.1842 145.16 54.7904 148.907 57.9816C151.477 60.169 153.148 62.9618 153.959 66.3387H168.93C167.954 59.4444 164.881 53.7744 159.696 49.3196C158.126 47.9655 156.362 46.7805 154.408 45.7615C134.52 45.7298 114.659 45.6785 94.8082 45.6212V66.3387H109.107V53.1842H109.108Z" fill="black"/>
<path d="M29.0465 41.8321C32.8358 37.9298 37.9991 35.9779 44.5411 35.9779C51.0831 35.9779 56.2449 37.957 60.0357 41.9046C61.0633 42.9764 61.9386 44.1931 62.6875 45.5321C67.9081 45.5472 73.1317 45.5593 78.3553 45.5744C78.1776 45.0279 77.9907 44.489 77.7903 43.9591C76.0788 39.45 73.6605 35.6519 70.5478 32.5587C67.435 29.4716 63.6683 27.0895 59.2568 25.4139C54.8452 23.7428 49.9425 22.9049 44.5426 22.9049C39.1427 22.9049 34.24 23.7428 29.8269 25.4139C25.4154 27.0895 21.6547 29.4928 18.5359 32.6357C15.4231 35.7772 13.011 39.604 11.2949 44.1071C11.1321 44.5373 10.983 44.9766 10.8353 45.4174C16.0213 45.4249 21.2073 45.4294 26.3932 45.4415C27.142 44.1025 28.0189 42.8903 29.048 41.8321H29.0465Z" fill="black"/>
<path d="M23.3633 65.0072V59.2301C23.3633 53.625 24.3803 49.0343 26.3902 45.4415C21.2043 45.4309 16.0183 45.4264 10.8323 45.4174C9.43264 49.5898 8.72601 54.1926 8.72601 59.2285V65.0057C8.72601 65.4556 8.73957 65.8949 8.75012 66.3372H23.407C23.3935 65.8934 23.3648 65.4631 23.3648 65.0057L23.3633 65.0072Z" fill="black"/>
<path d="M66.6063 66.3402C66.3954 73.3703 64.5317 78.7415 60.9669 82.4067C57.1761 86.309 52.0127 88.2609 45.4722 88.2609C38.9318 88.2609 33.7669 86.2818 29.9776 82.3343C26.4174 78.6192 24.5521 73.2722 24.3382 66.3402H9.68427C9.8048 71.4788 10.6169 76.1314 12.1507 80.2782C13.8065 84.7873 16.1946 88.5915 19.3134 91.6786C22.4262 94.7717 26.1884 97.1478 30.5999 98.8235C35.0114 100.495 39.9699 101.332 45.4722 101.332C50.9746 101.332 55.7749 100.495 60.1864 98.8235C64.5979 97.1478 68.3646 94.7446 71.4774 91.6031C74.5902 88.4647 77.0084 84.6666 78.72 80.2088C80.296 76.1027 81.1397 71.4758 81.2648 66.3417H66.6078L66.6063 66.3402Z" fill="black"/>
<path d="M80.3562 65.0073V59.2301C80.3562 54.2243 79.6857 49.6744 78.3523 45.5744C73.1302 45.5593 67.9066 45.5457 62.6844 45.5321C64.6974 49.134 65.7159 53.6929 65.7159 59.2301V65.0073C65.7159 65.4647 65.6873 65.8949 65.6737 66.3387H80.3306C80.3411 65.8964 80.3562 65.4571 80.3562 65.0073Z" fill="black"/>
<path d="M42.1786 2.80179H17.7314V14.8921H42.6276C42.8536 10.8615 42.4845 6.83238 42.1802 2.80179H42.1786Z" fill="black"/>
<path d="M71.3539 2.80179H42.1786C42.4845 6.83238 42.8521 10.8615 42.6261 14.8921H71.3539V2.80179Z" fill="black"/>
</g>
</g>
<defs>
<clipPath id="clip0_105_1642">
<rect width="487" height="107" fill="white"/>
</clipPath>
<clipPath id="clip1_105_1642">
<rect width="168" height="106" fill="white" transform="translate(5)"/>
</clipPath>
</defs>
</svg>
