<svg width="28" height="28" viewBox="0 0 28 28" fill="inherit" xmlns="http://www.w3.org/2000/svg">
<path fill-rule="evenodd" clip-rule="evenodd" d="M12.5 20C8.35786 20 5 16.6421 5 12.5C5 8.35786 8.35786 5 12.5 5C16.6421 5 20 8.35786 20 12.5C20 16.6421 16.6421 20 12.5 20ZM4 12.5C4 7.80558 7.80558 4 12.5 4C17.1944 4 21 7.80558 21 12.5C21 14.6673 20.1889 16.6451 18.8536 18.1465L23.8536 23.1464C24.0488 23.3417 24.0488 23.6583 23.8536 23.8536C23.6583 24.0488 23.3417 24.0488 23.1464 23.8536L18.1465 18.8536C16.6451 20.1889 14.6673 21 12.5 21C7.80558 21 4 17.1944 4 12.5Z" fill="inherit"/>
</svg>
